<mxfile host="app.diagrams.net" modified="2020-11-06T12:13:07.899Z" agent="5.0 (Macintosh; Intel Mac OS X 10_15_6) AppleWebKit/537.36 (KHTML, like Gecko) Chrome/86.0.4240.75 Safari/537.36" etag="e8bWSUXm9hHdy6sOijES" version="13.9.2" type="github">
  <diagram name="Page-1" id="74b105a0-9070-1c63-61bc-23e55f88626e">
    <mxGraphModel dx="1298" dy="843" grid="1" gridSize="10" guides="1" tooltips="1" connect="1" arrows="1" fold="1" page="1" pageScale="1.5" pageWidth="1169" pageHeight="826" background="none" math="0" shadow="0">
      <root>
        <mxCell id="0" style=";html=1;" />
        <mxCell id="1" style=";html=1;" parent="0" />
        <mxCell id="q0siccycir5NddS4q92I-13" value="" style="shape=actor;whiteSpace=wrap;html=1;" vertex="1" parent="1">
          <mxGeometry x="240" y="570" width="40" height="60" as="geometry" />
        </mxCell>
        <mxCell id="q0siccycir5NddS4q92I-14" value="" style="shape=process;whiteSpace=wrap;html=1;backgroundOutline=1;" vertex="1" parent="1">
          <mxGeometry x="460" y="585" width="120" height="60" as="geometry" />
        </mxCell>
        <mxCell id="q0siccycir5NddS4q92I-16" value="" style="endArrow=classic;startArrow=classic;html=1;exitX=1;exitY=0.75;exitDx=0;exitDy=0;entryX=0;entryY=0.5;entryDx=0;entryDy=0;" edge="1" parent="1" source="q0siccycir5NddS4q92I-13" target="q0siccycir5NddS4q92I-14">
          <mxGeometry width="50" height="50" relative="1" as="geometry">
            <mxPoint x="730" y="720" as="sourcePoint" />
            <mxPoint x="460" y="618" as="targetPoint" />
          </mxGeometry>
        </mxCell>
        <mxCell id="q0siccycir5NddS4q92I-18" value="Application&lt;br&gt;" style="text;html=1;strokeColor=none;fillColor=none;align=center;verticalAlign=middle;whiteSpace=wrap;rounded=0;" vertex="1" parent="1">
          <mxGeometry x="495" y="602" width="40" height="20" as="geometry" />
        </mxCell>
        <mxCell id="q0siccycir5NddS4q92I-19" value="Command" style="text;html=1;strokeColor=none;fillColor=none;align=center;verticalAlign=middle;whiteSpace=wrap;rounded=0;" vertex="1" parent="1">
          <mxGeometry x="340" y="570" width="40" height="20" as="geometry" />
        </mxCell>
        <mxCell id="q0siccycir5NddS4q92I-20" value="" style="rounded=0;whiteSpace=wrap;html=1;" vertex="1" parent="1">
          <mxGeometry x="757" y="380" width="120" height="60" as="geometry" />
        </mxCell>
        <mxCell id="q0siccycir5NddS4q92I-21" value="" style="endArrow=classic;startArrow=classic;html=1;exitX=1;exitY=0;exitDx=0;exitDy=0;entryX=0;entryY=0.5;entryDx=0;entryDy=0;" edge="1" parent="1" source="q0siccycir5NddS4q92I-14" target="q0siccycir5NddS4q92I-20">
          <mxGeometry width="50" height="50" relative="1" as="geometry">
            <mxPoint x="730" y="710" as="sourcePoint" />
            <mxPoint x="750" y="420" as="targetPoint" />
          </mxGeometry>
        </mxCell>
        <object label="Create Account" accountHolderName="string" minimumAmount="float" id="q0siccycir5NddS4q92I-22">
          <mxCell style="text;html=1;strokeColor=none;fillColor=none;align=center;verticalAlign=middle;whiteSpace=wrap;rounded=0;" vertex="1" parent="1">
            <mxGeometry x="624" y="450" width="40" height="20" as="geometry" />
          </mxCell>
        </object>
        <mxCell id="q0siccycir5NddS4q92I-24" value="" style="rounded=0;whiteSpace=wrap;html=1;" vertex="1" parent="1">
          <mxGeometry x="757" y="584" width="120" height="60" as="geometry" />
        </mxCell>
        <mxCell id="q0siccycir5NddS4q92I-25" value="" style="endArrow=classic;startArrow=classic;html=1;entryX=0;entryY=0.5;entryDx=0;entryDy=0;" edge="1" parent="1" source="q0siccycir5NddS4q92I-14" target="q0siccycir5NddS4q92I-24">
          <mxGeometry width="50" height="50" relative="1" as="geometry">
            <mxPoint x="730" y="700" as="sourcePoint" />
            <mxPoint x="780" y="650" as="targetPoint" />
          </mxGeometry>
        </mxCell>
        <object label="Deposit" accountNumber="string" amountToDeposit="float" id="q0siccycir5NddS4q92I-26">
          <mxCell style="text;html=1;strokeColor=none;fillColor=none;align=center;verticalAlign=middle;whiteSpace=wrap;rounded=0;" vertex="1" parent="1">
            <mxGeometry x="640" y="582" width="40" height="20" as="geometry" />
          </mxCell>
        </object>
        <mxCell id="q0siccycir5NddS4q92I-27" value="" style="rounded=0;whiteSpace=wrap;html=1;" vertex="1" parent="1">
          <mxGeometry x="757" y="760" width="120" height="60" as="geometry" />
        </mxCell>
        <mxCell id="q0siccycir5NddS4q92I-28" value="" style="endArrow=classic;startArrow=classic;html=1;exitX=1;exitY=1;exitDx=0;exitDy=0;entryX=0;entryY=0.5;entryDx=0;entryDy=0;" edge="1" parent="1" source="q0siccycir5NddS4q92I-14" target="q0siccycir5NddS4q92I-27">
          <mxGeometry width="50" height="50" relative="1" as="geometry">
            <mxPoint x="730" y="700" as="sourcePoint" />
            <mxPoint x="780" y="650" as="targetPoint" />
          </mxGeometry>
        </mxCell>
        <object label="Withdraw&lt;br&gt;" accountNumber="" amountToWithdraw="" id="q0siccycir5NddS4q92I-29">
          <mxCell style="text;html=1;strokeColor=none;fillColor=none;align=center;verticalAlign=middle;whiteSpace=wrap;rounded=0;" vertex="1" parent="1">
            <mxGeometry x="600" y="700" width="40" height="20" as="geometry" />
          </mxCell>
        </object>
      </root>
    </mxGraphModel>
  </diagram>
</mxfile>
